<svg xmlns="http://www.w3.org/2000/svg" xmlns:xlink="http://www.w3.org/1999/xlink" version="1.1" x="0px" y="0px" viewBox="0 0 52 65" style="enable-background:new 0 0 52 52;" xml:space="preserve"><style type="text/css">
	.st0{stroke:#2A3D4F;stroke-width:2;stroke-miterlimit:10;}
</style><g><path d="M26,22c-0.3,0-0.7-0.1-1-0.2l-13-4.5V31c0,0.4,0.2,0.7,0.6,0.9c4.2,2,8.8,3,13.4,3c4.7,0,9.2-1,13.4-3   c0.3-0.2,0.6-0.5,0.6-0.9V17.3l-13,4.5C26.7,21.9,26.3,22,26,22z"/><path d="M43,35.2v13.3c0,0.8,0.7,1.5,1.5,1.5h3c0.8,0,1.5-0.7,1.5-1.5V35.2c-0.9,0.5-1.9,0.8-3,0.8S43.9,35.7,43,35.2z"/><path d="M47,26.1V12.8l2.3-0.8c0.4-0.1,0.7-0.5,0.7-0.9s-0.3-0.8-0.7-0.9l-23-8c-0.2-0.1-0.5-0.1-0.7,0l-23,8C2.3,10.2,2,10.6,2,11   s0.3,0.8,0.7,0.9l23,8c0.1,0,0.2,0.1,0.3,0.1s0.2,0,0.3-0.1L45,13.4v12.7c-1.7,0.4-3,2-3,3.9c0,2.2,1.8,4,4,4c2.2,0,4-1.8,4-4   C50,28.1,48.7,26.6,47,26.1z"/></g><text x="0" y="67" fill="#000000" font-size="5px" font-weight="bold" font-family="'Helvetica Neue', Helvetica, Arial-Unicode, Arial, Sans-serif">Created by Graphic Tigers</text><text x="0" y="72" fill="#000000" font-size="5px" font-weight="bold" font-family="'Helvetica Neue', Helvetica, Arial-Unicode, Arial, Sans-serif">from the Noun Project</text></svg>